<svg width="24" height="25" viewBox="0 0 24 25" fill="none" xmlns="http://www.w3.org/2000/svg">
<path d="M21 12.5C21 17.4706 16.9706 21.5 12 21.5C7.02944 21.5 3 17.4706 3 12.5C3 7.52944 7.02944 3.5 12 3.5M17 12.5C17 15.2614 14.7614 17.5 12 17.5C9.23858 17.5 7 15.2614 7 12.5C7 9.73858 9.23858 7.5 12 7.5M14.7579 9.85162L18.7169 10.2674L20.8629 7.26292L18.2876 6.4045L17.4292 3.82921L14.4247 5.97528L14.7579 9.85162ZM14.7579 9.85162L12 12.4999" stroke="#6B21A8" stroke-linecap="round" stroke-linejoin="round"/>
</svg>
