<svg width="65" height="65" viewBox="0 0 65 65" fill="none" xmlns="http://www.w3.org/2000/svg">
<rect width="65" height="65" rx="32.5" fill="#FF6B35" fill-opacity="0.75"/>
<path d="M31.0197 14.0982C31.6447 12.1795 34.3593 12.1795 34.9822 14.0982L38.1468 23.8357C38.283 24.2534 38.5477 24.6174 38.9032 24.8755C39.2586 25.1337 39.6866 25.2729 40.1259 25.2732H50.3655C52.3843 25.2732 53.2218 27.8566 51.5905 29.0441L43.3072 35.0607C42.9514 35.3194 42.6866 35.6841 42.5507 36.1025C42.4149 36.5209 42.4149 36.9716 42.5509 37.3899L45.7134 47.1274C46.3384 49.0482 44.1405 50.6441 42.5093 49.4566L34.2259 43.4399C33.8699 43.1811 33.4411 43.0417 33.0009 43.0417C32.5608 43.0417 32.1319 43.1811 31.7759 43.4399L23.4926 49.4566C21.8613 50.6441 19.6634 49.0462 20.2884 47.1274L23.4509 37.3899C23.5869 36.9716 23.587 36.5209 23.4512 36.1025C23.3153 35.6841 23.0505 35.3194 22.6947 35.0607L14.4113 29.0441C12.778 27.8566 13.6197 25.2732 15.6363 25.2732H25.8738C26.3135 25.2734 26.742 25.1344 27.0979 24.8762C27.4537 24.6179 27.7188 24.2538 27.8551 23.8357L31.0197 14.0982Z" stroke="#E4572E" stroke-width="4" stroke-linecap="round" stroke-linejoin="round"/>
</svg>
