<svg width="26" height="26" viewBox="0 0 26 26" fill="none" xmlns="http://www.w3.org/2000/svg">
<path d="M5.39406 10.4918C3.24268 9.6313 2.16699 9.20102 2.16699 8.66634C2.16699 8.13166 3.24268 7.70138 5.39406 6.84084L8.43657 5.62383C10.5879 4.76329 11.6636 4.33301 13.0003 4.33301C14.3371 4.33301 15.4127 4.76329 17.5641 5.62383L20.6066 6.84084C22.758 7.70138 23.8337 8.13166 23.8337 8.66634C23.8337 9.20102 22.758 9.6313 20.6066 10.4918L17.5641 11.7089C15.4127 12.5694 14.3371 12.9997 13.0003 12.9997C11.6636 12.9997 10.5879 12.5694 8.43657 11.7089L5.39406 10.4918Z" stroke="#6B21A8"/>
<path opacity="0.5" d="M6.24697 10.833L5.39406 11.1741C3.24268 12.0347 2.16699 12.465 2.16699 12.9997C2.16699 13.5343 3.24268 13.9646 5.39406 14.8252L8.43657 16.0422C10.5879 16.9027 11.6636 17.333 13.0003 17.333C14.3371 17.333 15.4127 16.9027 17.5641 16.0422L20.6066 14.8252C22.758 13.9646 23.8337 13.5343 23.8337 12.9997C23.8337 12.465 22.758 12.0347 20.6066 11.1741L19.7537 10.833M6.24697 15.1663L5.39406 15.5075C3.24268 16.3681 2.16699 16.7984 2.16699 17.333C2.16699 17.8676 3.24268 18.2979 5.39406 19.1585L8.43657 20.3755C10.5879 21.236 11.6636 21.6663 13.0003 21.6663C14.3371 21.6663 15.4127 21.236 17.5641 20.3755L20.6066 19.1585C22.758 18.2979 23.8337 17.8676 23.8337 17.333C23.8337 16.7984 22.758 16.3681 20.6066 15.5075L19.7537 15.1663" stroke="#6B21A8" stroke-width="0.75"/>
</svg>
