<svg width="20" height="20" viewBox="0 0 20 20" fill="none" xmlns="http://www.w3.org/2000/svg">
<g clip-path="url(#clip0_711_3357)">
<path d="M6.80943 17.708C6.80982 17.9532 6.88177 18.1933 7.01676 18.3975L7.67782 19.3987C7.79074 19.5699 7.94391 19.7103 8.1237 19.8074C8.30348 19.9045 8.50429 19.9553 8.70828 19.9553H11.0953C11.2993 19.9553 11.5001 19.9045 11.6799 19.8074C11.8596 19.7103 12.0128 19.5699 12.1257 19.3987L12.7868 18.3975C12.9217 18.1932 12.9938 17.9534 12.9941 17.708L12.9957 16.2134H6.8075L6.80943 17.708ZM3.09375 6.85952C3.09375 8.58881 3.73005 10.1665 4.77869 11.372C5.4177 12.1066 6.41721 13.6414 6.79822 14.9362C6.79976 14.9463 6.80092 14.9564 6.80247 14.9666H13.0007C13.0022 14.9564 13.0034 14.9467 13.0049 14.9362C13.386 13.6414 14.3855 12.1066 15.0245 11.372C16.0731 10.1665 16.7094 8.58881 16.7094 6.85952C16.7094 3.06381 13.6501 -0.0116591 9.88031 3.32287e-05C5.93447 0.0121153 3.09375 3.23373 3.09375 6.85952ZM9.90158 3.74157C8.19537 3.74157 6.80711 5.14036 6.80711 6.85952C6.80711 7.20405 6.53016 7.48311 6.18822 7.48311C5.84628 7.48311 5.56932 7.20405 5.56932 6.85952C5.56932 4.45246 7.51265 2.49439 9.90158 2.49439C10.2435 2.49439 10.5205 2.77345 10.5205 3.11798C10.5205 3.46251 10.2435 3.74157 9.90158 3.74157Z" fill="#47C7C1"/>
</g>
<defs>
<clipPath id="clip0_711_3357">
<rect width="19.8046" height="19.9549" fill="white"/>
</clipPath>
</defs>
</svg>
